<svg id="Component_5_1" data-name="Component 5 – 1" xmlns="http://www.w3.org/2000/svg" width="540" height="540" viewBox="0 0 540 540">
  <g id="Rectangle_11" data-name="Rectangle 11" transform="translate(270)" fill="#435d96" stroke="#707070" stroke-width="1">
    <rect width="135" height="135" rx="37" stroke="none"/>
    <rect x="0.5" y="0.5" width="134" height="134" rx="36.5" fill="none"/>
  </g>
  <g id="Rectangle_12" data-name="Rectangle 12" transform="translate(135 135)" fill="#fffc40" stroke="#707070" stroke-width="1">
    <rect width="135" height="135" rx="37" stroke="none"/>
    <rect x="0.5" y="0.5" width="134" height="134" rx="36.5" fill="none"/>
  </g>
  <g id="Rectangle_16" data-name="Rectangle 16" transform="translate(135 405)" fill="#fffc40" stroke="#707070" stroke-width="1">
    <rect width="135" height="135" rx="37" stroke="none"/>
    <rect x="0.5" y="0.5" width="134" height="134" rx="36.5" fill="none"/>
  </g>
  <g id="Rectangle_14" data-name="Rectangle 14" transform="translate(0 270)" fill="#ff8172" stroke="#707070" stroke-width="1" opacity="0.7">
    <rect width="135" height="135" rx="37" stroke="none"/>
    <rect x="0.5" y="0.5" width="134" height="134" rx="36.5" fill="none"/>
  </g>
  <g id="Rectangle_15" data-name="Rectangle 15" transform="translate(270 270)" fill="#fffc40" stroke="#707070" stroke-width="1">
    <rect width="135" height="135" rx="37" stroke="none"/>
    <rect x="0.5" y="0.5" width="134" height="134" rx="36.5" fill="none"/>
  </g>
  <g id="Rectangle_13" data-name="Rectangle 13" transform="translate(405 135)" fill="#ff8172" stroke="#707070" stroke-width="1">
    <rect width="135" height="135" rx="37" stroke="none"/>
    <rect x="0.5" y="0.5" width="134" height="134" rx="36.5" fill="none"/>
  </g>
  <g id="Ellipse_3" data-name="Ellipse 3" transform="translate(135 270)" fill="#faba61" stroke="#707070" stroke-width="1">
    <circle cx="67.5" cy="67.5" r="67.5" stroke="none"/>
    <circle cx="67.5" cy="67.5" r="67" fill="none"/>
  </g>
  <g id="Ellipse_4" data-name="Ellipse 4" transform="translate(270 135)" fill="#faba61" stroke="#707070" stroke-width="1">
    <circle cx="67.5" cy="67.5" r="67.5" stroke="none"/>
    <circle cx="67.5" cy="67.5" r="67" fill="none"/>
  </g>
</svg>
