<svg xmlns="http://www.w3.org/2000/svg" width="27.126" height="26.694" viewBox="0 0 27.126 26.694">
  <path id="Icon_zocial-linkedin" data-name="Icon zocial-linkedin" d="M-.18,3.317A2.945,2.945,0,0,1,.736,1.092,3.3,3.3,0,0,1,3.119.216a3.207,3.207,0,0,1,2.33.863A3.088,3.088,0,0,1,6.366,3.4a2.88,2.88,0,0,1-.89,2.157,3.311,3.311,0,0,1-2.409.89H3.041a3.152,3.152,0,0,1-2.33-.89A3.034,3.034,0,0,1-.18,3.317ZM.16,26.911V8.9H5.973V26.911H.16Zm9.033,0h5.813V16.853a3.987,3.987,0,0,1,.209-1.456,3.905,3.905,0,0,1,1.113-1.55,2.792,2.792,0,0,1,1.872-.634q2.933,0,2.933,4.072v9.626h5.813V16.583q0-3.991-1.833-6.053a6.165,6.165,0,0,0-4.844-2.063,5.9,5.9,0,0,0-5.263,2.993v.054H14.98l.026-.054V8.9H9.194q.052.863.052,5.366T9.194,26.911Z" transform="translate(0.18 -0.216)" fill="#36244f"/>
</svg>
