<svg id="Icon_awesome-server" data-name="Icon awesome-server" xmlns="http://www.w3.org/2000/svg" width="184.315" height="146.5" viewBox="0 0 184.315 146.5">
  <path id="Icon_awesome-server-2" data-name="Icon awesome-server" d="M172.8,44.107H11.52C5.158,44.107,0,39.422,0,33.643V12.714C0,6.935,5.158,2.25,11.52,2.25H172.8c6.362,0,11.52,4.685,11.52,10.464V33.643C184.316,39.422,179.158,44.107,172.8,44.107ZM155.516,15.33c-4.772,0-8.64,3.514-8.64,7.848s3.868,7.848,8.64,7.848,8.64-3.514,8.64-7.848S160.288,15.33,155.516,15.33Zm-23.039,0c-4.772,0-8.64,3.514-8.64,7.848s3.868,7.848,8.64,7.848,8.64-3.514,8.64-7.848S137.248,15.33,132.477,15.33Zm40.319,81.1H11.52C5.158,96.429,0,91.744,0,85.964V65.036c0-5.779,5.158-10.464,11.52-10.464H172.8c6.362,0,11.52,4.685,11.52,10.464V85.964C184.316,91.744,179.158,96.429,172.8,96.429Zm-17.28-28.777c-4.772,0-8.64,3.514-8.64,7.848s3.868,7.848,8.64,7.848,8.64-3.514,8.64-7.848S160.288,67.652,155.516,67.652Zm-23.039,0c-4.772,0-8.64,3.514-8.64,7.848s3.868,7.848,8.64,7.848,8.64-3.514,8.64-7.848S137.248,67.652,132.477,67.652Zm40.319,81.1H11.52C5.158,148.75,0,144.065,0,138.286V117.357c0-5.779,5.158-10.464,11.52-10.464H172.8c6.362,0,11.52,4.685,11.52,10.464v20.929C184.316,144.065,179.158,148.75,172.8,148.75Zm-17.28-28.777c-4.772,0-8.64,3.514-8.64,7.848s3.868,7.848,8.64,7.848,8.64-3.514,8.64-7.848S160.288,119.973,155.516,119.973Zm-23.039,0c-4.772,0-8.64,3.514-8.64,7.848s3.868,7.848,8.64,7.848,8.64-3.514,8.64-7.848S137.248,119.973,132.477,119.973Z" transform="translate(0 -2.25)" fill="#435d96"/>
</svg>
