<svg id="Component_11_1" data-name="Component 11 – 1" xmlns="http://www.w3.org/2000/svg" width="65" height="130" viewBox="0 0 65 130">
  <circle id="Ellipse_2" data-name="Ellipse 2" cx="24.5" cy="24.5" r="24.5" transform="translate(8 6)" fill="#fffc40"/>
  <g id="Rectangle_10" data-name="Rectangle 10" fill="none" stroke="#fffc40" stroke-width="4">
    <rect width="65" height="130" rx="32" stroke="none"/>
    <rect x="2" y="2" width="61" height="126" rx="30" fill="none"/>
  </g>
  <path id="Icon_awesome-arrow-down" data-name="Icon awesome-arrow-down" d="M29.046,15.645l1.561,1.561a1.681,1.681,0,0,1,0,2.384L16.945,33.258a1.681,1.681,0,0,1-2.384,0L.893,19.589a1.681,1.681,0,0,1,0-2.384l1.561-1.561a1.689,1.689,0,0,1,2.412.028l8.072,8.473V3.938A1.683,1.683,0,0,1,14.625,2.25h2.25a1.683,1.683,0,0,1,1.688,1.688V24.145l8.072-8.473a1.677,1.677,0,0,1,2.412-.028Z" transform="translate(16.75 12.498)" fill="#435d96"/>
</svg>
